<svg id="visual" viewBox="0 0 900 300" width="900" height="300" xmlns="http://www.w3.org/2000/svg" xmlns:xlink="http://www.w3.org/1999/xlink" version="1.1"><rect x="0" y="0" width="900" height="300" fill="#001220"></rect><path d="M0 182L21.5 188.8C43 195.7 86 209.3 128.8 208.5C171.7 207.7 214.3 192.3 257.2 190.3C300 188.3 343 199.7 385.8 199.8C428.7 200 471.3 189 514.2 186.3C557 183.7 600 189.3 642.8 192.5C685.7 195.7 728.3 196.3 771.2 197C814 197.7 857 198.3 878.5 198.7L900 199L900 301L878.5 301C857 301 814 301 771.2 301C728.3 301 685.7 301 642.8 301C600 301 557 301 514.2 301C471.3 301 428.7 301 385.8 301C343 301 300 301 257.2 301C214.3 301 171.7 301 128.8 301C86 301 43 301 21.5 301L0 301Z" fill="#c62368"></path><path d="M0 206L21.5 206C43 206 86 206 128.8 210.3C171.7 214.7 214.3 223.3 257.2 226C300 228.7 343 225.3 385.8 224.7C428.7 224 471.3 226 514.2 227.8C557 229.7 600 231.3 642.8 233C685.7 234.7 728.3 236.3 771.2 234.3C814 232.3 857 226.7 878.5 223.8L900 221L900 301L878.5 301C857 301 814 301 771.2 301C728.3 301 685.7 301 642.8 301C600 301 557 301 514.2 301C471.3 301 428.7 301 385.8 301C343 301 300 301 257.2 301C214.3 301 171.7 301 128.8 301C86 301 43 301 21.5 301L0 301Z" fill="#e95667"></path><path d="M0 219L21.5 220.7C43 222.3 86 225.7 128.8 227.8C171.7 230 214.3 231 257.2 232C300 233 343 234 385.8 231.8C428.7 229.7 471.3 224.3 514.2 224C557 223.7 600 228.3 642.8 229C685.7 229.7 728.3 226.3 771.2 226.8C814 227.3 857 231.7 878.5 233.8L900 236L900 301L878.5 301C857 301 814 301 771.2 301C728.3 301 685.7 301 642.8 301C600 301 557 301 514.2 301C471.3 301 428.7 301 385.8 301C343 301 300 301 257.2 301C214.3 301 171.7 301 128.8 301C86 301 43 301 21.5 301L0 301Z" fill="#fa7268"></path><path d="M0 249L21.5 248C43 247 86 245 128.8 244C171.7 243 214.3 243 257.2 247.5C300 252 343 261 385.8 261.5C428.7 262 471.3 254 514.2 252.2C557 250.3 600 254.7 642.8 254.3C685.7 254 728.3 249 771.2 249C814 249 857 254 878.5 256.5L900 259L900 301L878.5 301C857 301 814 301 771.2 301C728.3 301 685.7 301 642.8 301C600 301 557 301 514.2 301C471.3 301 428.7 301 385.8 301C343 301 300 301 257.2 301C214.3 301 171.7 301 128.8 301C86 301 43 301 21.5 301L0 301Z" fill="#e95667"></path><path d="M0 265L21.5 265.2C43 265.3 86 265.7 128.8 267.3C171.7 269 214.3 272 257.2 271.5C300 271 343 267 385.8 268.2C428.7 269.3 471.3 275.7 514.2 277.7C557 279.7 600 277.3 642.8 274.5C685.7 271.7 728.3 268.3 771.2 268.3C814 268.3 857 271.7 878.5 273.3L900 275L900 301L878.5 301C857 301 814 301 771.2 301C728.3 301 685.7 301 642.8 301C600 301 557 301 514.2 301C471.3 301 428.7 301 385.8 301C343 301 300 301 257.2 301C214.3 301 171.7 301 128.8 301C86 301 43 301 21.5 301L0 301Z" fill="#c62368"></path></svg>