<svg id="visual" viewBox="0 0 900 600" width="900" height="600" xmlns="http://www.w3.org/2000/svg" xmlns:xlink="http://www.w3.org/1999/xlink" version="1.1"><rect x="0" y="0" width="900" height="600" fill="#001220"></rect><path d="M0 403L21.5 407.8C43 412.7 86 422.3 128.8 427.5C171.7 432.7 214.3 433.3 257.2 434.2C300 435 343 436 385.8 427.7C428.7 419.3 471.3 401.7 514.2 401.2C557 400.7 600 417.3 642.8 416.5C685.7 415.7 728.3 397.3 771.2 388.3C814 379.3 857 379.7 878.5 379.8L900 380L900 601L878.5 601C857 601 814 601 771.2 601C728.3 601 685.7 601 642.8 601C600 601 557 601 514.2 601C471.3 601 428.7 601 385.8 601C343 601 300 601 257.2 601C214.3 601 171.7 601 128.8 601C86 601 43 601 21.5 601L0 601Z" fill="#fa7268"></path><path d="M0 434L21.5 441.2C43 448.3 86 462.7 128.8 464.2C171.7 465.7 214.3 454.3 257.2 448.2C300 442 343 441 385.8 440.3C428.7 439.7 471.3 439.3 514.2 445C557 450.7 600 462.3 642.8 460.3C685.7 458.3 728.3 442.7 771.2 430C814 417.3 857 407.7 878.5 402.8L900 398L900 601L878.5 601C857 601 814 601 771.2 601C728.3 601 685.7 601 642.8 601C600 601 557 601 514.2 601C471.3 601 428.7 601 385.8 601C343 601 300 601 257.2 601C214.3 601 171.7 601 128.8 601C86 601 43 601 21.5 601L0 601Z" fill="#ef5f67"></path><path d="M0 496L21.5 488.3C43 480.7 86 465.3 128.8 461.5C171.7 457.7 214.3 465.3 257.2 473.7C300 482 343 491 385.8 493.7C428.7 496.3 471.3 492.7 514.2 488.5C557 484.3 600 479.7 642.8 471.2C685.7 462.7 728.3 450.3 771.2 454.8C814 459.3 857 480.7 878.5 491.3L900 502L900 601L878.5 601C857 601 814 601 771.2 601C728.3 601 685.7 601 642.8 601C600 601 557 601 514.2 601C471.3 601 428.7 601 385.8 601C343 601 300 601 257.2 601C214.3 601 171.7 601 128.8 601C86 601 43 601 21.5 601L0 601Z" fill="#e34c67"></path><path d="M0 523L21.5 521C43 519 86 515 128.8 518.2C171.7 521.3 214.3 531.7 257.2 527C300 522.3 343 502.7 385.8 493.5C428.7 484.3 471.3 485.7 514.2 495.3C557 505 600 523 642.8 524C685.7 525 728.3 509 771.2 503.2C814 497.3 857 501.7 878.5 503.8L900 506L900 601L878.5 601C857 601 814 601 771.2 601C728.3 601 685.7 601 642.8 601C600 601 557 601 514.2 601C471.3 601 428.7 601 385.8 601C343 601 300 601 257.2 601C214.3 601 171.7 601 128.8 601C86 601 43 601 21.5 601L0 601Z" fill="#d53867"></path><path d="M0 524L21.5 525.7C43 527.3 86 530.7 128.8 531C171.7 531.3 214.3 528.7 257.2 532.3C300 536 343 546 385.8 552.7C428.7 559.3 471.3 562.7 514.2 561.2C557 559.7 600 553.3 642.8 546.7C685.7 540 728.3 533 771.2 529.5C814 526 857 526 878.5 526L900 526L900 601L878.5 601C857 601 814 601 771.2 601C728.3 601 685.7 601 642.8 601C600 601 557 601 514.2 601C471.3 601 428.7 601 385.8 601C343 601 300 601 257.2 601C214.3 601 171.7 601 128.8 601C86 601 43 601 21.5 601L0 601Z" fill="#c62368"></path></svg>