<svg id="visual" viewBox="0 0 900 600" width="900" height="600" xmlns="http://www.w3.org/2000/svg" xmlns:xlink="http://www.w3.org/1999/xlink" version="1.1"><rect x="0" y="0" width="900" height="600" fill="#002233"></rect><path d="M0 418L21.5 434.5C43 451 86 484 128.8 499.3C171.7 514.7 214.3 512.3 257.2 496.8C300 481.3 343 452.7 385.8 451.8C428.7 451 471.3 478 514.2 479.2C557 480.3 600 455.7 642.8 442.7C685.7 429.7 728.3 428.3 771.2 422.2C814 416 857 405 878.5 399.5L900 394L900 601L878.5 601C857 601 814 601 771.2 601C728.3 601 685.7 601 642.8 601C600 601 557 601 514.2 601C471.3 601 428.7 601 385.8 601C343 601 300 601 257.2 601C214.3 601 171.7 601 128.8 601C86 601 43 601 21.5 601L0 601Z" fill="#0066FF" stroke-linecap="round" stroke-linejoin="miter"></path></svg>